TITLE ""
FILE "1Q_t_1178-1187.mp3" MP3
  TRACK 01 AUDIO
    TITLE "1Q_t_1178-1187_01"
    INDEX 01 00:00:00
  TRACK 02 AUDIO
    TITLE "1Q_t_1178-1187_02"
    INDEX 01 00:00:12
  TRACK 03 AUDIO
    TITLE "1Q_t_1178-1187_03"
    INDEX 01 00:01:31
  TRACK 04 AUDIO
    TITLE "1Q_t_1178-1187_04"
    INDEX 01 00:01:41
  TRACK 05 AUDIO
    TITLE "1Q_t_1178-1187_05"
    INDEX 01 00:03:73
  TRACK 06 AUDIO
    TITLE "1Q_t_1178-1187_06"
    INDEX 01 00:04:04
  TRACK 07 AUDIO
    TITLE "1Q_t_1178-1187_07"
    INDEX 01 00:10:19
  TRACK 08 AUDIO
    TITLE "1Q_t_1178-1187_08"
    INDEX 01 00:10:62
  TRACK 09 AUDIO
    TITLE "1Q_t_1178-1187_09"
    INDEX 01 00:11:71
  TRACK 10 AUDIO
    TITLE "1Q_t_1178-1187_10"
    INDEX 01 00:12:06
  TRACK 11 AUDIO
    TITLE "1Q_t_1178-1187_11"
    INDEX 01 00:14:50
  TRACK 12 AUDIO
    TITLE "1Q_t_1178-1187_12"
    INDEX 01 00:14:55
  TRACK 13 AUDIO
    TITLE "1Q_t_1178-1187_13"
    INDEX 01 00:19:43
  TRACK 14 AUDIO
    TITLE "1Q_t_1178-1187_14"
    INDEX 01 00:20:13
  TRACK 15 AUDIO
    TITLE "1Q_t_1178-1187_15"
    INDEX 01 00:21:52
  TRACK 16 AUDIO
    TITLE "1Q_t_1178-1187_16"
    INDEX 01 00:21:58
  TRACK 17 AUDIO
    TITLE "1Q_t_1178-1187_17"
    INDEX 01 00:24:01
  TRACK 18 AUDIO
    TITLE "1Q_t_1178-1187_18"
    INDEX 01 00:24:09
  TRACK 19 AUDIO
    TITLE "1Q_t_1178-1187_19"
    INDEX 01 00:29:41
  TRACK 20 AUDIO
    TITLE "1Q_t_1178-1187_20"
    INDEX 01 00:30:11
  TRACK 21 AUDIO
    TITLE "1Q_t_1178-1187_21"
    INDEX 01 00:31:30
  TRACK 22 AUDIO
    TITLE "1Q_t_1178-1187_22"
    INDEX 01 00:31:38
  TRACK 23 AUDIO
    TITLE "1Q_t_1178-1187_23"
    INDEX 01 00:34:05
  TRACK 24 AUDIO
    TITLE "1Q_t_1178-1187_24"
    INDEX 01 00:34:11
  TRACK 25 AUDIO
    TITLE "1Q_t_1178-1187_25"
    INDEX 01 00:37:53
  TRACK 26 AUDIO
    TITLE "1Q_t_1178-1187_26"
    INDEX 01 00:38:25
  TRACK 27 AUDIO
    TITLE "1Q_t_1178-1187_27"
    INDEX 01 00:39:36
  TRACK 28 AUDIO
    TITLE "1Q_t_1178-1187_28"
    INDEX 01 00:39:46
  TRACK 29 AUDIO
    TITLE "1Q_t_1178-1187_29"
    INDEX 01 00:41:58
  TRACK 30 AUDIO
    TITLE "1Q_t_1178-1187_30"
    INDEX 01 00:41:66
  TRACK 31 AUDIO
    TITLE "1Q_t_1178-1187_31"
    INDEX 01 00:46:34
  TRACK 32 AUDIO
    TITLE "1Q_t_1178-1187_32"
    INDEX 01 00:47:02
  TRACK 33 AUDIO
    TITLE "1Q_t_1178-1187_33"
    INDEX 01 00:48:23
  TRACK 34 AUDIO
    TITLE "1Q_t_1178-1187_34"
    INDEX 01 00:48:31
  TRACK 35 AUDIO
    TITLE "1Q_t_1178-1187_35"
    INDEX 01 00:49:64
  TRACK 36 AUDIO
    TITLE "1Q_t_1178-1187_36"
    INDEX 01 00:49:70
  TRACK 37 AUDIO
    TITLE "1Q_t_1178-1187_37"
    INDEX 01 00:56:05
  TRACK 38 AUDIO
    TITLE "1Q_t_1178-1187_38"
    INDEX 01 00:56:48
  TRACK 39 AUDIO
    TITLE "1Q_t_1178-1187_39"
    INDEX 01 00:58:00
  TRACK 40 AUDIO
    TITLE "1Q_t_1178-1187_40"
    INDEX 01 00:58:10
  TRACK 41 AUDIO
    TITLE "1Q_t_1178-1187_41"
    INDEX 01 00:59:64
  TRACK 42 AUDIO
    TITLE "1Q_t_1178-1187_42"
    INDEX 01 00:59:70
  TRACK 43 AUDIO
    TITLE "1Q_t_1178-1187_43"
    INDEX 01 01:03:64
  TRACK 44 AUDIO
    TITLE "1Q_t_1178-1187_44"
    INDEX 01 01:04:38
  TRACK 45 AUDIO
    TITLE "1Q_t_1178-1187_45"
    INDEX 01 01:05:57
  TRACK 46 AUDIO
    TITLE "1Q_t_1178-1187_46"
    INDEX 01 01:05:67
  TRACK 47 AUDIO
    TITLE "1Q_t_1178-1187_47"
    INDEX 01 01:08:63
  TRACK 48 AUDIO
    TITLE "1Q_t_1178-1187_48"
    INDEX 01 01:08:71
  TRACK 49 AUDIO
    TITLE "1Q_t_1178-1187_49"
    INDEX 01 01:15:00
  TRACK 50 AUDIO
    TITLE "1Q_t_1178-1187_50"
    INDEX 01 01:15:49
  TRACK 51 AUDIO
    TITLE "1Q_t_1178-1187_51"
    INDEX 01 01:16:66
  TRACK 52 AUDIO
    TITLE "1Q_t_1178-1187_52"
    INDEX 01 01:16:72
  TRACK 53 AUDIO
    TITLE "1Q_t_1178-1187_53"
    INDEX 01 01:19:65
  TRACK 54 AUDIO
    TITLE "1Q_t_1178-1187_54"
    INDEX 01 01:19:71
  TRACK 55 AUDIO
    TITLE "1Q_t_1178-1187_55"
    INDEX 01 01:26:24
  TRACK 56 AUDIO
    TITLE "1Q_t_1178-1187_56"
    INDEX 01 01:26:69
  TRACK 57 AUDIO
    TITLE "1Q_t_1178-1187_57"
    INDEX 01 01:28:13
  TRACK 58 AUDIO
    TITLE "1Q_t_1178-1187_58"
    INDEX 01 01:28:32
  TRACK 59 AUDIO
    TITLE "1Q_t_1178-1187_59"
    INDEX 01 01:31:29
  TRACK 60 AUDIO
    TITLE "1Q_t_1178-1187_60"
    INDEX 01 01:31:35
  TRACK 61 AUDIO
    TITLE "1Q_t_1178-1187_61"
    INDEX 01 01:37:33
